<svg width="473" height="214" viewBox="0 0 473 214" fill="none" xmlns="http://www.w3.org/2000/svg">
<circle cx="469.439" cy="3.72207" r="3.52358" transform="rotate(90 469.439 3.72207)" fill="#70C217"/>
<circle cx="469.439" cy="55.4008" r="3.52358" transform="rotate(90 469.439 55.4008)" fill="#70C217"/>
<circle cx="469.439" cy="107.08" r="3.52358" transform="rotate(90 469.439 107.08)" fill="#70C217"/>
<circle cx="469.439" cy="158.759" r="3.52358" transform="rotate(90 469.439 158.759)" fill="#70C217"/>
<circle cx="469.439" cy="210.438" r="3.52358" transform="rotate(90 469.439 210.438)" fill="#70C217"/>
<circle cx="417.76" cy="3.72158" r="3.52358" transform="rotate(90 417.76 3.72158)" fill="#70C217"/>
<circle cx="417.76" cy="55.4008" r="3.52358" transform="rotate(90 417.76 55.4008)" fill="#70C217"/>
<circle cx="417.76" cy="107.08" r="3.52358" transform="rotate(90 417.76 107.08)" fill="#70C217"/>
<circle cx="417.76" cy="158.759" r="3.52358" transform="rotate(90 417.76 158.759)" fill="#70C217"/>
<circle cx="417.76" cy="210.438" r="3.52358" transform="rotate(90 417.76 210.438)" fill="#70C217"/>
<circle cx="366.08" cy="3.72158" r="3.52358" transform="rotate(90 366.08 3.72158)" fill="#70C217"/>
<circle cx="366.08" cy="55.4008" r="3.52358" transform="rotate(90 366.08 55.4008)" fill="#70C217"/>
<circle cx="366.08" cy="107.08" r="3.52358" transform="rotate(90 366.08 107.08)" fill="#70C217"/>
<circle cx="366.08" cy="158.759" r="3.52358" transform="rotate(90 366.08 158.759)" fill="#70C217"/>
<circle cx="366.08" cy="210.438" r="3.52358" transform="rotate(90 366.08 210.438)" fill="#70C217"/>
<circle cx="314.401" cy="3.72158" r="3.52358" transform="rotate(90 314.401 3.72158)" fill="#70C217"/>
<circle cx="314.401" cy="55.4008" r="3.52358" transform="rotate(90 314.401 55.4008)" fill="#70C217"/>
<circle cx="314.401" cy="107.08" r="3.52358" transform="rotate(90 314.401 107.08)" fill="#70C217"/>
<circle cx="314.401" cy="158.759" r="3.52358" transform="rotate(90 314.401 158.759)" fill="#70C217"/>
<circle cx="314.401" cy="210.438" r="3.52358" transform="rotate(90 314.401 210.438)" fill="#70C217"/>
<circle cx="262.722" cy="3.72158" r="3.52358" transform="rotate(90 262.722 3.72158)" fill="#70C217"/>
<circle cx="262.722" cy="55.4008" r="3.52358" transform="rotate(90 262.722 55.4008)" fill="#70C217"/>
<circle cx="262.722" cy="107.08" r="3.52358" transform="rotate(90 262.722 107.08)" fill="#70C217"/>
<circle cx="262.722" cy="158.759" r="3.52358" transform="rotate(90 262.722 158.759)" fill="#70C217"/>
<circle cx="262.722" cy="210.438" r="3.52358" transform="rotate(90 262.722 210.438)" fill="#70C217"/>
<circle cx="211.043" cy="3.72158" r="3.52358" transform="rotate(90 211.043 3.72158)" fill="#70C217"/>
<circle cx="211.043" cy="55.4008" r="3.52358" transform="rotate(90 211.043 55.4008)" fill="#70C217"/>
<circle cx="211.043" cy="107.08" r="3.52358" transform="rotate(90 211.043 107.08)" fill="#70C217"/>
<circle cx="211.043" cy="158.759" r="3.52358" transform="rotate(90 211.043 158.759)" fill="#70C217"/>
<circle cx="211.043" cy="210.438" r="3.52358" transform="rotate(90 211.043 210.438)" fill="#70C217"/>
<circle cx="159.364" cy="3.72158" r="3.52358" transform="rotate(90 159.364 3.72158)" fill="#70C217"/>
<circle cx="159.364" cy="55.4008" r="3.52358" transform="rotate(90 159.364 55.4008)" fill="#70C217"/>
<circle cx="159.364" cy="107.08" r="3.52358" transform="rotate(90 159.364 107.08)" fill="#70C217"/>
<circle cx="159.364" cy="158.759" r="3.52358" transform="rotate(90 159.364 158.759)" fill="#70C217"/>
<circle cx="159.364" cy="210.438" r="3.52358" transform="rotate(90 159.364 210.438)" fill="#70C217"/>
<circle cx="107.684" cy="3.72158" r="3.52358" transform="rotate(90 107.684 3.72158)" fill="#70C217"/>
<circle cx="107.684" cy="55.4008" r="3.52358" transform="rotate(90 107.684 55.4008)" fill="#70C217"/>
<circle cx="107.684" cy="107.08" r="3.52358" transform="rotate(90 107.684 107.08)" fill="#70C217"/>
<circle cx="107.684" cy="158.759" r="3.52358" transform="rotate(90 107.684 158.759)" fill="#70C217"/>
<circle cx="107.684" cy="210.438" r="3.52358" transform="rotate(90 107.684 210.438)" fill="#70C217"/>
<circle cx="56.0052" cy="3.72158" r="3.52358" transform="rotate(90 56.0052 3.72158)" fill="#70C217"/>
<circle cx="56.0052" cy="55.4008" r="3.52358" transform="rotate(90 56.0052 55.4008)" fill="#70C217"/>
<circle cx="56.0052" cy="107.08" r="3.52358" transform="rotate(90 56.0052 107.08)" fill="#70C217"/>
<circle cx="56.0052" cy="158.759" r="3.52358" transform="rotate(90 56.0052 158.759)" fill="#70C217"/>
<circle cx="56.0052" cy="210.438" r="3.52358" transform="rotate(90 56.0052 210.438)" fill="#70C217"/>
<circle cx="4.32603" cy="3.72158" r="3.52358" transform="rotate(90 4.32603 3.72158)" fill="#70C217"/>
<circle cx="4.32603" cy="55.4008" r="3.52358" transform="rotate(90 4.32603 55.4008)" fill="#70C217"/>
<circle cx="4.32603" cy="107.08" r="3.52358" transform="rotate(90 4.32603 107.08)" fill="#70C217"/>
<circle cx="4.32603" cy="158.759" r="3.52358" transform="rotate(90 4.32603 158.759)" fill="#70C217"/>
<circle cx="4.32603" cy="210.438" r="3.52358" transform="rotate(90 4.32603 210.438)" fill="#70C217"/>
</svg>
